<?xml version="1.0" ?>
<!-- Uploaded to: SVG Repo, www.svgrepo.com, Generator: SVG Repo Mixer Tools -->
<svg width="800px" height="800px" viewBox="0 0 24 24" version="1.1" xml:space="preserve" xmlns="http://www.w3.org/2000/svg" xmlns:xlink="http://www.w3.org/1999/xlink">
<style type="text/css">
	.st0{opacity:0.2;fill:none;stroke:#000000;stroke-width:5.000000e-02;stroke-miterlimit:10;}
	.st1{fill:none;stroke:#000000;stroke-width:2;stroke-linecap:round;stroke-linejoin:round;stroke-miterlimit:10;}
</style>
<g id="Layer_1"/>
<g id="Layer_2">
<path d="M21.4,10.8c-0.3-0.3-0.7-0.3-1.1-0.1C19.9,10.9,19.5,11,19,11c-1.7,0-3-1.3-3-3c0-0.9,0.4-1.7,1-2.2c0.3-0.3,0.4-0.6,0.3-1   c-0.1-0.4-0.4-0.6-0.8-0.7c-0.2,0-0.3,0-0.5,0c-3,0-5.4,2.2-5.9,5c-1.9,0.2-3.4,1.6-3.8,3.6H5.4c-1.3,0-2.6,0.8-3.1,2.2   C2.1,15.2,2,15.7,2,16.2v0.1c0,2,1.5,3.7,3.4,3.7h10.2c1.9,0,3.4-1.7,3.4-3.7v-0.1c0-0.3,0-0.6-0.1-0.9c1.3-0.7,2.3-1.9,2.8-3.3   C21.8,11.5,21.7,11.1,21.4,10.8z M14.3,6.4C14.1,6.9,14,7.4,14,8c0,2.6,2.1,4.8,4.7,5c-0.2,0.2-0.5,0.4-0.8,0.5c0,0-0.1,0-0.1-0.1   c-0.1-0.1-0.1-0.1-0.2-0.2c-0.1-0.1-0.3-0.2-0.4-0.3c-0.1,0-0.1-0.1-0.2-0.1c-0.1-0.1-0.3-0.1-0.5-0.2c-0.1,0-0.1,0-0.2-0.1   c-0.2-0.1-0.5-0.1-0.7-0.1h-0.9c-0.3-1.2-1-2.3-2-2.9c-0.1-0.1-0.3-0.2-0.5-0.3c0,0,0,0-0.1,0c0,0-0.1,0-0.1-0.1   C12.3,8,13.1,6.9,14.3,6.4z M17,16.3c0,0.9-0.6,1.7-1.4,1.7H5.4C4.6,18,4,17.2,4,16.3v-0.1c0-0.2,0-0.5,0.1-0.7   c0.2-0.6,0.7-0.9,1.3-0.9h1.8c0.6,0,1-0.4,1-1c0-1.4,1-2.6,2.3-2.6c0.1,0,0.2,0,0.4,0c0,0,0.1,0,0.1,0c0.1,0,0.2,0.1,0.4,0.1   c0,0,0.1,0,0.1,0c0.1,0,0.1,0.1,0.2,0.1c0.7,0.5,1.2,1.3,1.2,2.3c0,0.6,0.4,1,1,1h1.8c0.4,0,0.8,0.2,1.1,0.6c0,0,0,0.1,0.1,0.1   c0.2,0.3,0.3,0.6,0.3,0.9V16.3z"/>
</g>
</svg>