<?xml version="1.0" ?>
<!-- Uploaded to: SVG Repo, www.svgrepo.com, Generator: SVG Repo Mixer Tools -->
<svg width="800px" height="800px" viewBox="0 0 24 24" version="1.1" xml:space="preserve" xmlns="http://www.w3.org/2000/svg" xmlns:xlink="http://www.w3.org/1999/xlink">
<style type="text/css">
	.st0{opacity:0.2;fill:none;stroke:#000000;stroke-width:5.000000e-02;stroke-miterlimit:10;}
	.st1{fill:none;stroke:#000000;stroke-width:2;stroke-linecap:round;stroke-linejoin:round;stroke-miterlimit:10;}
</style>
<g id="Layer_1"/>
<g id="Layer_2">
<g>
<path d="M4,14c-0.3,0-0.5-0.1-0.7-0.3c-0.9-0.9-1.3-2-1.3-3.2C2,8,4,6,6.5,6h0.6C7.6,3.7,9.6,2,12,2s4.4,1.7,4.9,4h0.6    C20,6,22,8,22,10.5c0,1.2-0.5,2.3-1.3,3.1c-0.4,0.4-1,0.4-1.4,0c-0.4-0.4-0.4-1,0-1.4c0.5-0.5,0.7-1.1,0.7-1.7    C20,9.1,18.9,8,17.5,8H16c-0.6,0-1-0.4-1-1c0-1.7-1.3-3-3-3S9,5.3,9,7c0,0.6-0.4,1-1,1H6.5C5.1,8,4,9.1,4,10.5    c0,0.7,0.3,1.3,0.7,1.8c0.4,0.4,0.4,1,0,1.4C4.5,13.9,4.3,14,4,14z"/>
</g>
<g>
<path d="M8,16c-0.1,0-0.3,0-0.4-0.1c-0.5-0.2-0.7-0.8-0.4-1.3l1-2c0.2-0.5,0.8-0.7,1.3-0.4c0.5,0.2,0.7,0.8,0.4,1.3l-1,2    C8.7,15.8,8.4,16,8,16z"/>
</g>
<g>
<path d="M15,16c-0.1,0-0.3,0-0.4-0.1c-0.5-0.2-0.7-0.8-0.4-1.3l1-2c0.2-0.5,0.8-0.7,1.3-0.4c0.5,0.2,0.7,0.8,0.4,1.3l-1,2    C15.7,15.8,15.4,16,15,16z"/>
</g>
<g>
<path d="M4,21c-0.1,0-0.3,0-0.4-0.1c-0.5-0.2-0.7-0.8-0.4-1.3l1-2c0.2-0.5,0.8-0.7,1.3-0.4c0.5,0.2,0.7,0.8,0.4,1.3l-1,2    C4.7,20.8,4.4,21,4,21z"/>
</g>
<g>
<path d="M11,21c-0.1,0-0.3,0-0.4-0.1c-0.5-0.2-0.7-0.8-0.4-1.3l1-2c0.2-0.5,0.8-0.7,1.3-0.4c0.5,0.2,0.7,0.8,0.4,1.3l-1,2    C11.7,20.8,11.4,21,11,21z"/>
</g>
<g>
<path d="M18,21c-0.1,0-0.3,0-0.4-0.1c-0.5-0.2-0.7-0.8-0.4-1.3l1-2c0.2-0.5,0.8-0.7,1.3-0.4c0.5,0.2,0.7,0.8,0.4,1.3l-1,2    C18.7,20.8,18.4,21,18,21z"/>
</g>
</g>
</svg>