<?xml version="1.0" ?>
<!-- Uploaded to: SVG Repo, www.svgrepo.com, Generator: SVG Repo Mixer Tools -->
<svg width="800px" height="800px" viewBox="0 0 24 24" version="1.1" xml:space="preserve" xmlns="http://www.w3.org/2000/svg" xmlns:xlink="http://www.w3.org/1999/xlink">
<style type="text/css">
	.st0{opacity:0.2;fill:none;stroke:#000000;stroke-width:5.000000e-02;stroke-miterlimit:10;}
	.st1{fill:none;stroke:#000000;stroke-width:2;stroke-linecap:round;stroke-linejoin:round;stroke-miterlimit:10;}
</style>
<g id="Layer_1"/>
<g id="Layer_2">
<g>
<path d="M19,10h-7c-1.7,0-3-1.3-3-3s1.3-3,3-3c0.9,0,1.7,0.4,2.2,1c0.4,0.4,0.3,1-0.1,1.4c-0.4,0.4-1,0.3-1.4-0.1    C12.6,6.1,12.3,6,12,6c-0.6,0-1,0.4-1,1s0.4,1,1,1h7c0.6,0,1,0.4,1,1S19.6,10,19,10z"/>
</g>
<g>
<path d="M9,17c-1.7,0-3-1.3-3-3s1.3-3,3-3h12c0.6,0,1,0.4,1,1s-0.4,1-1,1H9c-0.6,0-1,0.4-1,1s0.4,1,1,1c0.3,0,0.6-0.1,0.7-0.3    c0.4-0.4,1-0.4,1.4-0.1c0.4,0.4,0.4,1,0.1,1.4C10.7,16.6,9.9,17,9,17z"/>
</g>
<g>
<path d="M16,20c-1.7,0-3-1.3-3-3s1.3-3,3-3h4c0.6,0,1,0.4,1,1s-0.4,1-1,1h-4c-0.6,0-1,0.4-1,1s0.4,1,1,1c0.3,0,0.6-0.1,0.8-0.4    c0.3-0.4,1-0.5,1.4-0.2c0.4,0.3,0.5,1,0.2,1.4C17.8,19.6,16.9,20,16,20z"/>
</g>
<g>
<circle cx="4.5" cy="8.5" r="0.5"/>
</g>
<g>
<circle cx="6.5" cy="5.5" r="0.5"/>
</g>
<g>
<circle cx="2.5" cy="6.5" r="0.5"/>
</g>
<g>
<circle cx="4.5" cy="15.5" r="0.5"/>
</g>
<g>
<circle cx="2.5" cy="17.5" r="0.5"/>
</g>
<g>
<circle cx="6.5" cy="18.5" r="0.5"/>
</g>
<g>
<circle cx="2.5" cy="13.5" r="0.5"/>
</g>
<g>
<circle cx="2.5" cy="10.5" r="0.5"/>
</g>
</g>
</svg>